<svg width="210" height="80" viewBox="0 0 210 80" fill="none" xmlns="http://www.w3.org/2000/svg">
<g clip-path="url(#clip0_10755_6399)">
<path fill-rule="evenodd" clip-rule="evenodd" d="M71.547 34.4084C73.2873 36.1487 74.2541 38.8559 74.2541 42.3365V55.4857C74.2541 55.6791 74.0608 55.8724 73.8674 55.8724H67.8729C67.6796 55.8724 67.4862 55.6791 67.4862 55.4857V43.3034C67.4862 41.3697 67.0994 40.0161 66.3259 39.0492C65.5525 38.0824 64.3923 37.6956 62.8453 37.6956C61.105 37.6956 59.7514 38.2758 58.7845 39.2426C57.8177 40.4028 57.2376 41.9498 57.2376 44.0769V55.4857C57.2376 55.6791 57.0442 55.8724 56.8508 55.8724H50.8563C50.663 55.8724 50.4696 55.6791 50.4696 55.4857V32.4747C50.4696 32.2813 50.663 32.0879 50.8563 32.0879H56.6574C56.8508 32.0879 57.0442 32.2813 57.0442 32.4747V34.7951C58.011 33.8282 59.1712 33.0548 60.5248 32.4747C61.8784 31.8945 63.4254 31.7012 64.9724 31.7012C67.2928 31.7012 69.6133 32.668 71.547 34.4084ZM46.4088 45.8172H28.8121C29.1989 47.3641 29.9724 48.5244 31.1326 49.2979C32.2928 50.0713 33.8398 50.6514 35.5801 50.6514C36.7403 50.6514 37.9006 50.4581 38.8674 50.0713C39.6409 49.6846 40.4143 49.2979 41.1878 48.5244C41.3812 48.331 41.5746 48.331 41.768 48.5244L44.2818 51.2316C44.4751 51.4249 44.4751 51.6183 44.2818 51.8117C42.5414 53.7454 39.6409 55.8724 35.3867 56.0658C32.6795 56.0658 30.3591 55.4857 28.2321 54.5188C26.105 53.552 24.558 52.005 23.3978 50.2647C22.2376 48.331 21.6575 46.3973 21.6575 43.8835C21.6575 41.563 22.2376 39.436 23.3978 37.6956C24.558 35.7619 26.105 34.4083 27.8453 33.2481C29.779 32.2813 31.9061 31.7012 34.2265 31.7012C36.547 31.7012 38.674 32.2813 40.6077 33.2481C42.5414 34.215 43.895 35.7619 45.0552 37.5023C46.2154 39.436 46.6022 41.5631 46.6022 44.0769C46.6022 44.0769 46.6022 44.657 46.4088 45.6238C46.7956 45.6238 46.6022 45.8172 46.4088 45.8172ZM30.7458 38.2758C29.779 39.2426 29.0055 40.4028 28.8121 41.9498H40.4143C40.221 40.4028 39.4475 39.2426 38.4806 38.2758C37.5138 37.3089 36.1602 36.9222 34.6132 36.9222C33.0663 36.9222 31.7127 37.3089 30.7458 38.2758ZM21.0773 50.8448V55.2923C21.0773 55.4857 20.884 55.6791 20.6906 55.6791H0.386734C0.193364 55.6791 0 55.4857 0 55.2923V51.6183C0 51.4249 1.17995e-05 51.4249 0.193382 51.4249L12.1823 37.3089H0.773469C0.580099 37.3089 0.386734 37.1155 0.386734 36.9222V32.4747C0.386734 32.2813 0.580099 32.0879 0.773469 32.0879H20.3039C20.4972 32.0879 20.6906 32.2813 20.6906 32.4747V36.1487C20.6906 36.342 20.6906 36.3421 20.4972 36.3421L8.50827 50.4581H20.4972C20.884 50.4581 21.0773 50.6515 21.0773 50.8448Z" fill="#EC5A5B"/>
<path fill-rule="evenodd" clip-rule="evenodd" d="M192.596 55.4862C190.856 55.0994 189.502 54.5193 188.342 53.9392C188.149 53.7459 188.149 53.5525 188.149 53.3591L190.082 49.105C190.276 48.9116 190.469 48.7182 190.662 48.9116C191.629 49.4917 192.79 49.8784 194.143 50.2652C195.69 50.6519 197.044 50.8453 198.591 50.8453C201.491 50.8453 203.038 50.0718 203.038 48.7182C203.038 48.1381 202.651 47.558 201.878 47.1713C201.104 46.7845 199.944 46.5912 198.204 46.3978C196.27 46.011 194.723 45.8177 193.37 45.4309C192.016 45.0442 191.049 44.4641 190.082 43.4972C189.115 42.5304 188.729 41.1768 188.729 39.4365C188.729 37.8895 189.115 36.5359 190.082 35.3757C190.856 34.2155 192.209 33.2486 193.95 32.6685C195.69 32.0884 197.624 31.7017 199.751 31.7017C201.491 31.7017 203.038 31.895 204.778 32.2818C206.325 32.6685 207.486 33.0552 208.646 33.6354C208.839 33.8287 208.839 34.0221 208.839 34.2155L206.906 38.2762C206.712 38.4696 206.519 38.663 206.325 38.4696C204.392 37.5028 202.265 36.9226 199.944 36.9226C198.397 36.9226 197.43 37.116 196.657 37.5028C195.883 37.8895 195.497 38.4696 195.497 39.0497C195.497 39.8232 195.883 40.2099 196.657 40.5967C197.43 40.9834 198.784 41.1768 200.524 41.3702C202.458 41.7569 204.005 41.9503 205.359 42.337C206.519 42.7238 207.679 43.3039 208.646 44.2707C209.613 45.2376 209.999 46.5912 209.999 48.3315C209.999 49.8784 209.613 51.0387 208.646 52.1989C207.679 53.3591 206.519 54.326 204.778 54.9061C203.038 55.4862 201.104 55.8729 198.784 55.8729C196.27 56.0663 194.337 55.8729 192.596 55.4862ZM178.867 23H184.861C185.055 23 185.248 23.1934 185.248 23.3867V55.2928C185.248 55.4862 185.055 55.6796 184.861 55.6796H178.867C178.674 55.6796 178.48 55.4862 178.48 55.2928V23.3867C178.48 23.1934 178.674 23 178.867 23ZM150.055 53.9392C150.055 54.1326 150.055 54.326 149.861 54.5193C148.895 55.0994 146.574 56.2597 144.447 56.2597C141.933 56.2597 139.806 55.4862 138.259 54.1326C136.712 52.779 135.939 50.6519 135.939 47.7514V37.8895L132.651 38.0829C132.458 38.0829 132.265 37.8895 132.265 37.6961V33.2486C132.265 33.0552 132.458 32.8619 132.651 32.8619H135.939V27.4475C135.939 27.2541 136.132 27.0608 136.325 27.0608H142.32C142.513 27.0608 142.707 27.2541 142.707 27.4475V32.8619H148.121C148.314 32.8619 148.508 33.0552 148.508 33.2486V36.9226C148.508 37.116 148.314 37.3094 148.121 37.3094L142.513 37.6961V47.9448C142.513 48.9116 142.707 49.6851 143.287 50.2652C143.867 50.8453 144.447 51.0387 145.414 51.0387C146.381 51.0387 147.154 50.8453 147.734 50.4586C147.928 50.2652 148.314 50.4586 148.314 50.6519L150.055 53.9392ZM111.961 54.5193C110.027 53.5525 108.48 52.0055 107.32 50.2652C106.16 48.3315 105.58 46.3978 105.58 43.884C105.58 41.5635 106.16 39.4365 107.32 37.5028C108.48 35.5691 110.027 34.2155 111.961 33.2486C113.894 32.2818 116.215 31.7017 118.729 31.7017C121.243 31.7017 123.37 32.2818 125.497 33.2486C127.43 34.2155 128.977 35.7624 130.138 37.5028C131.298 39.4365 131.878 41.3702 131.878 43.884C131.878 46.2044 131.298 48.3315 130.138 50.2652C128.977 52.1989 127.43 53.5525 125.497 54.5193C123.563 55.4862 121.243 56.0663 118.729 56.0663C116.215 56.0663 113.894 55.6795 111.961 54.5193ZM122.983 48.7182C124.143 47.558 124.723 46.011 124.723 43.884C124.723 41.9503 124.143 40.2099 122.983 39.0497C121.823 37.8895 120.469 37.3094 118.729 37.3094C116.988 37.3094 115.441 37.8895 114.281 39.0497C113.121 40.2099 112.541 41.7569 112.541 43.884C112.541 45.8177 113.121 47.558 114.281 48.7182C115.441 49.8784 116.795 50.4586 118.729 50.4586C120.662 50.4586 121.823 49.8784 122.983 48.7182ZM100.359 34.4088C102.099 36.1492 103.066 38.8564 103.066 42.337V55.4862C103.066 55.6795 102.872 55.8729 102.679 55.8729H96.6846C96.4912 55.8729 96.2978 55.6795 96.2978 55.4862V43.3039C96.2978 41.3702 95.9111 40.0166 95.1376 39.0497C94.3641 38.0829 93.2039 37.6961 91.6569 37.6961C89.9166 37.6961 88.563 38.2762 87.5961 39.2431C86.6293 40.4033 86.0492 41.9503 86.0492 44.0773V55.4862C86.0492 55.6795 85.8558 55.8729 85.6624 55.8729H79.668C79.4746 55.8729 79.2812 55.6795 79.2812 55.4862V23.3867C79.2812 23.1934 79.4746 23 79.668 23H85.6624C85.8558 23 86.0492 23.1934 86.0492 23.3867V34.4088C87.0161 33.442 87.9829 32.8619 89.3365 32.2818C90.6901 31.7016 92.0437 31.5083 93.5906 31.5083C96.1044 31.7017 98.6183 32.6685 100.359 34.4088ZM174.999 45.8177H157.403C157.79 47.3646 158.563 48.5249 159.723 49.2983C160.883 50.0718 162.43 50.6519 164.171 50.6519C165.331 50.6519 166.491 50.4586 167.458 50.0718C168.232 49.6851 169.005 49.2983 169.778 48.5249C169.972 48.3315 170.165 48.3315 170.359 48.5249L172.872 51.232C173.066 51.4254 173.066 51.6188 172.872 51.8122C171.132 53.7459 168.231 55.8729 163.977 56.0663C161.27 56.0663 158.95 55.4862 156.823 54.5193C154.696 53.5525 153.149 52.0055 151.988 50.2652C150.828 48.3315 150.248 46.3978 150.248 43.884C150.248 41.5635 150.828 39.4365 151.988 37.6961C153.149 35.7624 154.696 34.4088 156.436 33.2486C158.37 32.2818 160.497 31.7017 162.817 31.7017C165.138 31.7017 167.265 32.2818 169.198 33.2486C171.132 34.2155 172.486 35.7624 173.646 37.5028C174.806 39.4365 175.193 41.5635 175.193 44.0773C175.193 44.0773 175.193 44.6574 174.999 45.6243C175.386 45.6243 175.193 45.8177 174.999 45.8177ZM159.336 38.2762C158.37 39.2431 157.596 40.4033 157.403 41.9503H169.005C168.812 40.4033 168.038 39.2431 167.071 38.2762C166.104 37.3094 164.751 36.9226 163.204 36.9226C161.657 36.9226 160.303 37.3094 159.336 38.2762Z" fill="#004661"/>
</g>
<defs>
<clipPath id="clip0_10755_6399">
<rect width="210" height="80" fill="white"/>
</clipPath>
</defs>
</svg>
